<svg version="1.0" xmlns="http://www.w3.org/2000/svg"
  xmlns:xlink="http://www.w3.org/1999/xlink" width="100%" height="100%"
  viewBox="0 0 81.83414634146341 81.83414634146341" preserveAspectRatio="xMidYMid meet"
  color-interpolation-filters="sRGB" style="margin: auto;">
  <rect x="0" y="0" width="100%" height="100%" fill="#040e29" fill-opacity="0"
    class="background"></rect> <!---->
  <g fill="#ffffff" class="icon-text-wrapper icon-svg-group iconsvg"
    transform="translate(11.690592686722916, 11.690592686722916)">
    <g fill="#fee001" class="iconsvg-imagesvg icon_container"
      mask="url(#7de363d5-0b61-457d-8927-4e60f2bed892)">
      <rect fill="#ffffff" fill-opacity="0" stroke-width="2" x="0" y="0" width="58.45296167247387"
        height="58.45296167247387" class="image-rect"></rect>
      <svg viewBox="0 0 60 60" x="0" y="0" width="58.45296167247387" height="58.45296167247387"
        class="image-svg-svg bn" style="overflow: visible;">
        <g hollow-target="iconBnOutline">
          <g mask="url(#60aa7d59-26e0-4694-93a0-f9cd77f77e4f)">
            <svg fill="#000000" xmlns="http://www.w3.org/2000/svg"
              xmlns:xlink="http://www.w3.org/1999/xlink" version="1.1" x="0" y="0"
              viewBox="5 5 90 90" style="overflow: visible;" xml:space="preserve" width="60"
              height="60" filtersec="colorsf179427480" filter="url(#gFq97fx8F8UiVJ93sz1Xh)"><g transform="scale(1, 1) skewX(0)"><path d="M50,5C25.187,5,5,25.187,5,50s20.187,45,45,45s45-20.187,45-45S74.813,5,50,5z M50,92C26.841,92,8,73.159,8,50  S26.841,8,50,8s42,18.841,42,42S73.159,92,50,92z"></path><path d="M50,11c-21.505,0-39,17.495-39,39s17.495,39,39,39s39-17.495,39-39S71.505,11,50,11z M50,86c-19.851,0-36-16.149-36-36  s16.149-36,36-36s36,16.149,36,36S69.851,86,50,86z"></path><path d="M50,17c-18.196,0-33,14.804-33,33s14.804,33,33,33s33-14.804,33-33S68.196,17,50,17z M50,80c-16.542,0-30-13.458-30-30  s13.458-30,30-30s30,13.458,30,30S66.542,80,50,80z"></path></g><defs><filter id="gFq97fx8F8UiVJ93sz1Xh"><feColorMatrix type="matrix" values="0 0 0 0 0.9921875  0 0 0 0 0.875  0 0 0 0 0.00390625  0 0 0 1 0"></feColorMatrix></filter></defs></svg>
          </g>
          <g filter="url(#colors3472860918)">
            <svg xmlns="http://www.w3.org/2000/svg" xmlns:xlink="http://www.w3.org/1999/xlink"
              viewBox="0 0 49.104000000000006 50.328" width="38" height="38" x="11" y="11"
              class="image-svg-letter">
              <path transform="translate(-2.8800000000000003 50.328)"
                d="M23.04 0L2.88-50.33L12.60-50.33L27.43-12.24L42.34-50.33L51.98-50.33L31.90 0L23.04 0Z"></path>
            </svg>
          </g>
        </g>
        <mask id="60aa7d59-26e0-4694-93a0-f9cd77f77e4f">
          <g fill="white">
            <svg xmlns="http://www.w3.org/2000/svg" xmlns:xlink="http://www.w3.org/1999/xlink"
              version="1.1" x="0" y="0" viewBox="5 5 90 90" style="overflow: visible;"
              xml:space="preserve" width="60" height="60" filtersec="colorsf179427480"><g transform="scale(1, 1) skewX(0)"><path d="M50,5C25.187,5,5,25.187,5,50s20.187,45,45,45s45-20.187,45-45S74.813,5,50,5z M50,92C26.841,92,8,73.159,8,50  S26.841,8,50,8s42,18.841,42,42S73.159,92,50,92z"></path><path d="M50,11c-21.505,0-39,17.495-39,39s17.495,39,39,39s39-17.495,39-39S71.505,11,50,11z M50,86c-19.851,0-36-16.149-36-36  s16.149-36,36-36s36,16.149,36,36S69.851,86,50,86z"></path><path d="M50,17c-18.196,0-33,14.804-33,33s14.804,33,33,33s33-14.804,33-33S68.196,17,50,17z M50,80c-16.542,0-30-13.458-30-30  s13.458-30,30-30s30,13.458,30,30S66.542,80,50,80z"></path></g><defs></defs></svg>
          </g>
          <g fill="black" filter="url(#2eb8113b-8904-4e74-8c86-ccacb33e7509)">
            <svg xmlns="http://www.w3.org/2000/svg" xmlns:xlink="http://www.w3.org/1999/xlink"
              viewBox="0 0 49.104000000000006 50.328" width="38" height="38" x="11" y="11"
              class="image-svg-letter">
              <path transform="translate(-2.8800000000000003 50.328)"
                d="M23.04 0L2.88-50.33L12.60-50.33L27.43-12.24L42.34-50.33L51.98-50.33L31.90 0L23.04 0Z"></path>
            </svg>
          </g>
          <defs>
            <filter id="2eb8113b-8904-4e74-8c86-ccacb33e7509">
              <feGaussianBlur in="SourceGraphic" stdDeviation="1.26"></feGaussianBlur>
              <feComponentTransfer>
                <feFuncA type="discrete" tableValues="0 1 1 1 1 1 1 1 1 1 1 1 1 1 0"></feFuncA>
              </feComponentTransfer>
            </filter>
          </defs>
        </mask>
      </svg>
      <defs>
        <filter id="colors3472860918">
          <feColorMatrix type="matrix"
            values="0 0 0 0 0.9921875  0 0 0 0 0.875  0 0 0 0 0.00390625  0 0 0 1 0"
            class="icon-fecolormatrix"></feColorMatrix>
        </filter>
        <filter id="colorsf179427480">
          <feColorMatrix type="matrix"
            values="0 0 0 0 0.99609375  0 0 0 0 0.99609375  0 0 0 0 0.99609375  0 0 0 1 0"
            class="icon-fecolormatrix"></feColorMatrix>
        </filter>
        <filter id="colorsb8234065243">
          <feColorMatrix type="matrix" values="0 0 0 0 0  0 0 0 0 0  0 0 0 0 0  0 0 0 1 0"
            class="icon-fecolormatrix"></feColorMatrix>
        </filter>
      </defs>
      <rect v-gra="id" width="70.45296096801758" height="70.45296096801758"
        transform="translate(-6, -6)" style="pointer-events:none;"
        fill="url(#OcD5YLB0zplprPtWa723d)"></rect>
    </g>
    <g transform="translate(29.22648048400879,65.45296096801758)">
      <g data-gra="path-name" fill-rule="" class="tp-name iconsvg-namesvg">
        <g transform="scale(1)">
          <g>
            <path d="" transform="translate(0, 0)"></path>
          </g> <!----> <!----> <!----> <!----> <!----> <!----> <!---->
        </g>
      </g> <!---->
    </g>
  </g>
  <defs v-gra="od"></defs>
  <defs v-gra="id">
    <filter id="0758ac28-6f63-420e-9913-939875350162" filterUnits="userSpaceOnUse">
      <feColorMatrix type="matrix"
        values="0 0 0 0 0.99609375  0 0 0 0 0.99609375  0 0 0 0 0.99609375  0 0 0 1 0"></feColorMatrix>
    </filter>
    <linearGradient x1="0" y1="1" x2="0" y2="0" id="OcD5YLB0zplprPtWa723d">
      <stop offset="0%" stop-color="#4481eb"></stop>
      <stop offset="100%" stop-color="#05befe"></stop>
    </linearGradient>
    <filter id="42443b3f1de60f6b6fd3b6a9844b4764" filterUnits="objectBoundingBox">
      <feColorMatrix type="matrix"
        values="0 0 0 0 0.99609375  0 0 0 0 0.99609375  0 0 0 0 0.99609375  0 0 0 1 0"></feColorMatrix>
    </filter>
  </defs>
  <mask v-gra="im" id="7de363d5-0b61-457d-8927-4e60f2bed892">
    <g fill="#fee001" class="iconsvg-imagesvg icon_container"
      filter="url(#0758ac28-6f63-420e-9913-939875350162)">
      <rect fill="#ffffff" fill-opacity="0" stroke-width="2" x="0" y="0" width="58.45296167247387"
        height="58.45296167247387" class="image-rect"></rect>
      <svg viewBox="0 0 60 60" x="0" y="0" width="58.45296167247387" height="58.45296167247387"
        class="image-svg-svg bn" style="overflow: visible;">
        <g hollow-target="iconBnOutline">
          <g mask="url(#60aa7d59-26e0-4694-93a0-f9cd77f77e4f)">
            <svg fill="#000000" xmlns="http://www.w3.org/2000/svg"
              xmlns:xlink="http://www.w3.org/1999/xlink" version="1.1" x="0" y="0"
              viewBox="5 5 90 90" style="overflow: visible;" xml:space="preserve" width="60"
              height="60" filtersec="colorsf179427480"><g transform="scale(1, 1) skewX(0)"><path d="M50,5C25.187,5,5,25.187,5,50s20.187,45,45,45s45-20.187,45-45S74.813,5,50,5z M50,92C26.841,92,8,73.159,8,50  S26.841,8,50,8s42,18.841,42,42S73.159,92,50,92z"></path><path d="M50,11c-21.505,0-39,17.495-39,39s17.495,39,39,39s39-17.495,39-39S71.505,11,50,11z M50,86c-19.851,0-36-16.149-36-36  s16.149-36,36-36s36,16.149,36,36S69.851,86,50,86z"></path><path d="M50,17c-18.196,0-33,14.804-33,33s14.804,33,33,33s33-14.804,33-33S68.196,17,50,17z M50,80c-16.542,0-30-13.458-30-30  s13.458-30,30-30s30,13.458,30,30S66.542,80,50,80z"></path></g><defs><filter id="gFq97fx8F8UiVJ93sz1Xh"><feColorMatrix type="matrix" values="0 0 0 0 0.9921875  0 0 0 0 0.875  0 0 0 0 0.00390625  0 0 0 1 0"></feColorMatrix></filter></defs></svg>
          </g>
          <g>
            <svg xmlns="http://www.w3.org/2000/svg" xmlns:xlink="http://www.w3.org/1999/xlink"
              viewBox="0 0 49.104000000000006 50.328" width="38" height="38" x="11" y="11"
              class="image-svg-letter">
              <path transform="translate(-2.8800000000000003 50.328)"
                d="M23.04 0L2.88-50.33L12.60-50.33L27.43-12.24L42.34-50.33L51.98-50.33L31.90 0L23.04 0Z"></path>
            </svg>
          </g>
        </g>
        <mask id="60aa7d59-26e0-4694-93a0-f9cd77f77e4f">
          <g fill="white">
            <svg xmlns="http://www.w3.org/2000/svg" xmlns:xlink="http://www.w3.org/1999/xlink"
              version="1.1" x="0" y="0" viewBox="5 5 90 90" style="overflow: visible;"
              xml:space="preserve" width="60" height="60" filtersec="colorsf179427480"><g transform="scale(1, 1) skewX(0)"><path d="M50,5C25.187,5,5,25.187,5,50s20.187,45,45,45s45-20.187,45-45S74.813,5,50,5z M50,92C26.841,92,8,73.159,8,50  S26.841,8,50,8s42,18.841,42,42S73.159,92,50,92z"></path><path d="M50,11c-21.505,0-39,17.495-39,39s17.495,39,39,39s39-17.495,39-39S71.505,11,50,11z M50,86c-19.851,0-36-16.149-36-36  s16.149-36,36-36s36,16.149,36,36S69.851,86,50,86z"></path><path d="M50,17c-18.196,0-33,14.804-33,33s14.804,33,33,33s33-14.804,33-33S68.196,17,50,17z M50,80c-16.542,0-30-13.458-30-30  s13.458-30,30-30s30,13.458,30,30S66.542,80,50,80z"></path></g><defs></defs></svg>
          </g>
          <g fill="black">
            <svg xmlns="http://www.w3.org/2000/svg" xmlns:xlink="http://www.w3.org/1999/xlink"
              viewBox="0 0 49.104000000000006 50.328" width="38" height="38" x="11" y="11"
              class="image-svg-letter">
              <path transform="translate(-2.8800000000000003 50.328)"
                d="M23.04 0L2.88-50.33L12.60-50.33L27.43-12.24L42.34-50.33L51.98-50.33L31.90 0L23.04 0Z"></path>
            </svg>
          </g>
          <defs>
            <filter id="2eb8113b-8904-4e74-8c86-ccacb33e7509">
              <feGaussianBlur in="SourceGraphic" stdDeviation="1.26"></feGaussianBlur>
              <feComponentTransfer>
                <feFuncA type="discrete" tableValues="0 1 1 1 1 1 1 1 1 1 1 1 1 1 0"></feFuncA>
              </feComponentTransfer>
            </filter>
          </defs>
        </mask>
      </svg>
      <defs>
        <filter id="colors3472860918">
          <feColorMatrix type="matrix"
            values="0 0 0 0 0.9921875  0 0 0 0 0.875  0 0 0 0 0.00390625  0 0 0 1 0"
            class="icon-fecolormatrix"></feColorMatrix>
        </filter>
        <filter id="colorsf179427480">
          <feColorMatrix type="matrix"
            values="0 0 0 0 0.99609375  0 0 0 0 0.99609375  0 0 0 0 0.99609375  0 0 0 1 0"
            class="icon-fecolormatrix"></feColorMatrix>
        </filter>
        <filter id="colorsb8234065243">
          <feColorMatrix type="matrix" values="0 0 0 0 0  0 0 0 0 0  0 0 0 0 0  0 0 0 1 0"
            class="icon-fecolormatrix"></feColorMatrix>
        </filter>
      </defs>
    </g>
  </mask>
</svg>